<svg width="1390" height="658" viewBox="0 0 1390 658" fill="none" xmlns="http://www.w3.org/2000/svg">
<rect width="1390" height="658" rx="20" fill="white"/>
<path fill-rule="evenodd" clip-rule="evenodd" d="M0 316.461C0 326.378 12.0199 331.311 18.9863 324.253V324.253C38.972 305.017 76.9446 267.921 115.917 258.303C154.889 248.685 192.861 267.921 231.833 267.921C269.806 267.921 308.778 248.685 347.75 295.4C385.723 343.488 424.694 458.9 463.666 468.518C501.639 478.136 540.611 381.959 579.583 381.959C617.556 381.959 656.528 478.136 695.5 478.136C733.472 478.136 772.444 381.959 810.417 343.488C849.389 305.017 888.361 324.253 926.334 333.87C965.306 343.488 1004.28 343.488 1042.25 362.723C1081.22 381.959 1120.19 420.43 1158.17 449.283C1197.14 478.136 1235.11 495.997 1274.08 486.379C1313.06 478.136 1351.03 439.665 1371.01 420.43L1384.23 407.036C1387.93 403.293 1390 398.245 1390 392.986V18.9863C1390 8.50047 1381.5 0 1371.01 0V0C1351.03 0 1313.06 0 1274.08 0C1235.11 0 1197.14 0 1158.17 0C1120.19 0 1081.22 0 1042.25 0C1004.28 0 965.306 0 926.334 0C888.361 0 849.389 0 810.417 0C772.444 0 733.472 0 695.5 0C656.528 0 617.556 0 579.583 0C540.611 0 501.639 0 463.666 0C424.694 0 385.723 0 347.75 0C308.778 0 269.806 0 231.833 0C192.861 0 154.889 0 115.917 0C76.9446 0 38.972 0 18.9863 0V0C8.50048 0 0 8.50047 0 18.9863V316.461Z" fill="#4E3DD1"/>
<rect x="595" y="39" width="251" height="41" rx="20" fill="#6D55E3"/>
<path d="M611.299 54.082H621.582V57.3164H621.248C621.137 56.7188 620.949 56.2324 620.686 55.8574C620.422 55.4766 620.108 55.2158 619.745 55.0752C619.382 54.9287 618.825 54.8555 618.075 54.8555H615.896V59.4961H617.469C619.168 59.4961 620.401 59.7949 621.169 60.3926C621.937 60.9902 622.32 61.7871 622.32 62.7832C622.32 63.4629 622.124 64.0488 621.731 64.541C621.345 65.0332 620.855 65.3994 620.264 65.6396C619.678 65.8799 618.819 66 617.688 66H611.299V65.6748C612.037 65.6631 612.509 65.5664 612.714 65.3848C612.925 65.1973 613.03 64.793 613.03 64.1719V56.0156C613.03 55.3418 612.925 54.9053 612.714 54.7061C612.503 54.5068 612.031 54.4072 611.299 54.4072V54.082ZM615.896 60.2695V63.8643C615.896 64.4326 615.975 64.834 616.133 65.0684C616.291 65.2969 616.584 65.4111 617.012 65.4111C617.697 65.4111 618.213 65.1797 618.559 64.7168C618.91 64.2539 619.086 63.6768 619.086 62.9854C619.086 62.3174 618.928 61.7578 618.611 61.3066C618.295 60.8496 617.94 60.5625 617.548 60.4453C617.161 60.3281 616.61 60.2695 615.896 60.2695ZM628.042 64.7871C627.04 65.6719 626.141 66.1143 625.344 66.1143C624.875 66.1143 624.485 65.9619 624.175 65.6572C623.864 65.3467 623.709 64.96 623.709 64.4971C623.709 63.8701 623.979 63.3076 624.518 62.8096C625.057 62.3057 626.231 61.6377 628.042 60.8057V59.9795C628.042 59.3584 628.007 58.9688 627.937 58.8105C627.872 58.6465 627.746 58.5059 627.559 58.3887C627.371 58.2656 627.16 58.2041 626.926 58.2041C626.545 58.2041 626.231 58.2891 625.985 58.459C625.833 58.5645 625.757 58.6875 625.757 58.8281C625.757 58.9512 625.839 59.1035 626.003 59.2852C626.226 59.5371 626.337 59.7803 626.337 60.0146C626.337 60.3018 626.229 60.5479 626.012 60.7529C625.801 60.9521 625.522 61.0518 625.177 61.0518C624.808 61.0518 624.497 60.9404 624.245 60.7178C623.999 60.4951 623.876 60.2344 623.876 59.9355C623.876 59.5137 624.043 59.1123 624.377 58.7314C624.711 58.3447 625.177 58.0488 625.774 57.8438C626.372 57.6387 626.993 57.5361 627.638 57.5361C628.417 57.5361 629.032 57.7031 629.483 58.0371C629.94 58.3652 630.236 58.7227 630.371 59.1094C630.453 59.3555 630.494 59.9209 630.494 60.8057V63.9961C630.494 64.3711 630.509 64.6084 630.538 64.708C630.567 64.8018 630.611 64.8721 630.67 64.9189C630.729 64.9658 630.796 64.9893 630.872 64.9893C631.024 64.9893 631.18 64.8809 631.338 64.6641L631.602 64.875C631.309 65.3086 631.004 65.625 630.688 65.8242C630.377 66.0176 630.022 66.1143 629.624 66.1143C629.155 66.1143 628.789 66.0059 628.525 65.7891C628.262 65.5664 628.101 65.2324 628.042 64.7871ZM628.042 64.1455V61.3945C627.333 61.8105 626.806 62.2559 626.46 62.7305C626.231 63.0469 626.117 63.3662 626.117 63.6885C626.117 63.958 626.214 64.1953 626.407 64.4004C626.554 64.5586 626.759 64.6377 627.022 64.6377C627.315 64.6377 627.655 64.4736 628.042 64.1455ZM632.524 57.7822H636.708V58.1074C636.392 58.1191 636.178 58.207 636.066 58.3711C635.961 58.5352 635.908 58.8838 635.908 59.417V61.4385C636.564 61.4385 637.013 61.333 637.253 61.1221C637.499 60.9053 637.733 60.4951 637.956 59.8916C638.267 59.042 638.58 58.4561 638.896 58.1338C639.219 57.8057 639.655 57.6416 640.206 57.6416C640.669 57.6416 641.073 57.7734 641.419 58.0371C641.765 58.2949 641.938 58.6377 641.938 59.0654C641.938 59.3936 641.835 59.6748 641.63 59.9092C641.431 60.1377 641.17 60.252 640.848 60.252C640.186 60.252 639.849 59.9121 639.837 59.2324C639.831 58.7578 639.729 58.5205 639.529 58.5205C639.23 58.5205 638.929 58.9219 638.624 59.7246C638.378 60.3809 638.208 60.7939 638.114 60.9639C638.021 61.1338 637.859 61.3213 637.631 61.5264C638.223 61.6436 638.65 61.8018 638.914 62.001C639.184 62.2002 639.535 62.6543 639.969 63.3633L640.751 64.6201C641.161 65.2881 641.592 65.6396 642.043 65.6748V66H638.879L636.436 62.001H635.908V64.2861C635.908 64.8018 635.97 65.1592 636.093 65.3584C636.216 65.5518 636.421 65.6572 636.708 65.6748V66H632.524V65.6748C632.8 65.6689 633.022 65.5957 633.192 65.4551C633.362 65.3145 633.447 64.957 633.447 64.3828V59.5312C633.447 58.9863 633.38 58.6143 633.245 58.415C633.116 58.21 632.876 58.1074 632.524 58.1074V57.7822ZM647.413 64.7871C646.411 65.6719 645.512 66.1143 644.715 66.1143C644.246 66.1143 643.856 65.9619 643.546 65.6572C643.235 65.3467 643.08 64.96 643.08 64.4971C643.08 63.8701 643.35 63.3076 643.889 62.8096C644.428 62.3057 645.603 61.6377 647.413 60.8057V59.9795C647.413 59.3584 647.378 58.9688 647.308 58.8105C647.243 58.6465 647.117 58.5059 646.93 58.3887C646.742 58.2656 646.531 58.2041 646.297 58.2041C645.916 58.2041 645.603 58.2891 645.356 58.459C645.204 58.5645 645.128 58.6875 645.128 58.8281C645.128 58.9512 645.21 59.1035 645.374 59.2852C645.597 59.5371 645.708 59.7803 645.708 60.0146C645.708 60.3018 645.6 60.5479 645.383 60.7529C645.172 60.9521 644.894 61.0518 644.548 61.0518C644.179 61.0518 643.868 60.9404 643.616 60.7178C643.37 60.4951 643.247 60.2344 643.247 59.9355C643.247 59.5137 643.414 59.1123 643.748 58.7314C644.082 58.3447 644.548 58.0488 645.146 57.8438C645.743 57.6387 646.364 57.5361 647.009 57.5361C647.788 57.5361 648.403 57.7031 648.854 58.0371C649.312 58.3652 649.607 58.7227 649.742 59.1094C649.824 59.3555 649.865 59.9209 649.865 60.8057V63.9961C649.865 64.3711 649.88 64.6084 649.909 64.708C649.938 64.8018 649.982 64.8721 650.041 64.9189C650.1 64.9658 650.167 64.9893 650.243 64.9893C650.396 64.9893 650.551 64.8809 650.709 64.6641L650.973 64.875C650.68 65.3086 650.375 65.625 650.059 65.8242C649.748 66.0176 649.394 66.1143 648.995 66.1143C648.526 66.1143 648.16 66.0059 647.896 65.7891C647.633 65.5664 647.472 65.2324 647.413 64.7871ZM647.413 64.1455V61.3945C646.704 61.8105 646.177 62.2559 645.831 62.7305C645.603 63.0469 645.488 63.3662 645.488 63.6885C645.488 63.958 645.585 64.1953 645.778 64.4004C645.925 64.5586 646.13 64.6377 646.394 64.6377C646.687 64.6377 647.026 64.4736 647.413 64.1455ZM656.36 66V65.6748C656.653 65.6689 656.894 65.5986 657.081 65.4639C657.274 65.3232 657.371 65.0127 657.371 64.5322V58.3359H655.051V61.9307C655.051 63.2256 654.986 64.1191 654.857 64.6113C654.729 65.1035 654.479 65.4814 654.11 65.7451C653.741 66.0088 653.349 66.1406 652.933 66.1406C652.464 66.1406 652.086 66 651.799 65.7188C651.518 65.4316 651.377 65.1035 651.377 64.7344C651.377 64.377 651.479 64.0869 651.685 63.8643C651.896 63.6357 652.165 63.5215 652.493 63.5215C653.12 63.5215 653.434 63.9023 653.434 64.6641C653.434 65.0098 653.501 65.1826 653.636 65.1826C653.894 65.1826 654.093 64.9688 654.233 64.541C654.374 64.1133 654.444 63.2432 654.444 61.9307V59.54C654.444 59.001 654.371 58.6318 654.225 58.4326C654.078 58.2334 653.826 58.125 653.469 58.1074V57.7822H660.711V58.1074C660.125 58.1191 659.832 58.4883 659.832 59.2148V64.4971C659.832 64.9014 659.894 65.1973 660.017 65.3848C660.14 65.5664 660.371 65.6631 660.711 65.6748V66H656.36ZM666.521 64.7871C665.519 65.6719 664.619 66.1143 663.822 66.1143C663.354 66.1143 662.964 65.9619 662.653 65.6572C662.343 65.3467 662.188 64.96 662.188 64.4971C662.188 63.8701 662.457 63.3076 662.996 62.8096C663.535 62.3057 664.71 61.6377 666.521 60.8057V59.9795C666.521 59.3584 666.485 58.9688 666.415 58.8105C666.351 58.6465 666.225 58.5059 666.037 58.3887C665.85 58.2656 665.639 58.2041 665.404 58.2041C665.023 58.2041 664.71 58.2891 664.464 58.459C664.312 58.5645 664.235 58.6875 664.235 58.8281C664.235 58.9512 664.317 59.1035 664.481 59.2852C664.704 59.5371 664.815 59.7803 664.815 60.0146C664.815 60.3018 664.707 60.5479 664.49 60.7529C664.279 60.9521 664.001 61.0518 663.655 61.0518C663.286 61.0518 662.976 60.9404 662.724 60.7178C662.478 60.4951 662.354 60.2344 662.354 59.9355C662.354 59.5137 662.521 59.1123 662.855 58.7314C663.189 58.3447 663.655 58.0488 664.253 57.8438C664.851 57.6387 665.472 57.5361 666.116 57.5361C666.896 57.5361 667.511 57.7031 667.962 58.0371C668.419 58.3652 668.715 58.7227 668.85 59.1094C668.932 59.3555 668.973 59.9209 668.973 60.8057V63.9961C668.973 64.3711 668.987 64.6084 669.017 64.708C669.046 64.8018 669.09 64.8721 669.148 64.9189C669.207 64.9658 669.274 64.9893 669.351 64.9893C669.503 64.9893 669.658 64.8809 669.816 64.6641L670.08 64.875C669.787 65.3086 669.482 65.625 669.166 65.8242C668.855 66.0176 668.501 66.1143 668.103 66.1143C667.634 66.1143 667.268 66.0059 667.004 65.7891C666.74 65.5664 666.579 65.2324 666.521 64.7871ZM666.521 64.1455V61.3945C665.812 61.8105 665.284 62.2559 664.938 62.7305C664.71 63.0469 664.596 63.3662 664.596 63.6885C664.596 63.958 664.692 64.1953 664.886 64.4004C665.032 64.5586 665.237 64.6377 665.501 64.6377C665.794 64.6377 666.134 64.4736 666.521 64.1455ZM671.021 57.7822H675.556C676.505 57.7822 677.281 57.9551 677.885 58.3008C678.488 58.6406 678.79 59.1475 678.79 59.8213C678.79 60.7295 678.163 61.3418 676.909 61.6582C678.603 61.8574 679.449 62.5664 679.449 63.7852C679.449 64.5234 679.106 65.0771 678.421 65.4463C677.735 65.8154 676.795 66 675.6 66H671.021V65.6748C671.425 65.6338 671.674 65.54 671.768 65.3936C671.867 65.2471 671.917 64.96 671.917 64.5322V59.6367C671.917 58.9746 671.861 58.5615 671.75 58.3975C671.645 58.2334 671.401 58.1367 671.021 58.1074V57.7822ZM674.501 61.4473C675.896 61.4062 676.593 60.8877 676.593 59.8916C676.593 58.8721 675.896 58.3535 674.501 58.3359V61.4473ZM674.501 62.001V64.6992C674.501 64.9746 674.545 65.1709 674.633 65.2881C674.721 65.3994 674.911 65.4551 675.204 65.4551C675.696 65.4551 676.115 65.2822 676.461 64.9365C676.807 64.5908 676.979 64.1514 676.979 63.6182C676.979 63.0557 676.786 62.6455 676.399 62.3877C676.019 62.1299 675.386 62.001 674.501 62.001ZM683.888 65.165V68.2236C683.888 68.6455 683.92 68.9326 683.984 69.085C684.055 69.2373 684.16 69.3486 684.301 69.4189C684.441 69.4893 684.717 69.5244 685.127 69.5244V69.8496H680.442V69.5244C680.806 69.5127 681.075 69.4102 681.251 69.2168C681.368 69.082 681.427 68.7334 681.427 68.1709V59.4961C681.427 58.916 681.359 58.5469 681.225 58.3887C681.09 58.2246 680.829 58.1309 680.442 58.1074V57.7822H683.888V58.8633C684.175 58.4414 684.468 58.1367 684.767 57.9492C685.194 57.6738 685.66 57.5361 686.164 57.5361C686.768 57.5361 687.315 57.7266 687.808 58.1074C688.306 58.4883 688.684 59.0156 688.941 59.6895C689.199 60.3574 689.328 61.0781 689.328 61.8516C689.328 62.6836 689.193 63.4453 688.924 64.1367C688.66 64.8223 688.273 65.3467 687.764 65.71C687.26 66.0674 686.697 66.2461 686.076 66.2461C685.625 66.2461 685.203 66.1465 684.811 65.9473C684.518 65.7949 684.21 65.5342 683.888 65.165ZM683.888 64.2773C684.392 64.9922 684.931 65.3496 685.505 65.3496C685.821 65.3496 686.082 65.1826 686.287 64.8486C686.592 64.3564 686.744 63.4189 686.744 62.0361C686.744 60.6182 686.577 59.6484 686.243 59.127C686.021 58.7812 685.722 58.6084 685.347 58.6084C684.755 58.6084 684.269 59.0361 683.888 59.8916V64.2773ZM695.683 66V65.6748C696.21 65.6748 696.474 65.2822 696.474 64.4971V60.4717L694.118 64.4971C694.124 65.2646 694.391 65.6572 694.918 65.6748V66H690.734V65.6748C691.068 65.6748 691.306 65.5811 691.446 65.3936C691.587 65.2061 691.657 64.8779 691.657 64.4092V59.3379C691.657 58.5176 691.35 58.1074 690.734 58.1074V57.7822H694.918V58.1074C694.613 58.1191 694.402 58.207 694.285 58.3711C694.174 58.5352 694.118 58.8574 694.118 59.3379V63.3457L696.474 59.2676C696.468 58.834 696.403 58.5322 696.28 58.3623C696.157 58.1924 695.958 58.1074 695.683 58.1074V57.7822H699.866V58.1074C699.55 58.1133 699.315 58.1924 699.163 58.3447C699.011 58.4971 698.935 58.79 698.935 59.2236V64.4531C698.935 64.9395 699.002 65.2646 699.137 65.4287C699.277 65.5928 699.521 65.6748 699.866 65.6748V66H695.683ZM705.632 64.7871C704.63 65.6719 703.73 66.1143 702.934 66.1143C702.465 66.1143 702.075 65.9619 701.765 65.6572C701.454 65.3467 701.299 64.96 701.299 64.4971C701.299 63.8701 701.568 63.3076 702.107 62.8096C702.646 62.3057 703.821 61.6377 705.632 60.8057V59.9795C705.632 59.3584 705.597 58.9688 705.526 58.8105C705.462 58.6465 705.336 58.5059 705.148 58.3887C704.961 58.2656 704.75 58.2041 704.516 58.2041C704.135 58.2041 703.821 58.2891 703.575 58.459C703.423 58.5645 703.347 58.6875 703.347 58.8281C703.347 58.9512 703.429 59.1035 703.593 59.2852C703.815 59.5371 703.927 59.7803 703.927 60.0146C703.927 60.3018 703.818 60.5479 703.602 60.7529C703.391 60.9521 703.112 61.0518 702.767 61.0518C702.397 61.0518 702.087 60.9404 701.835 60.7178C701.589 60.4951 701.466 60.2344 701.466 59.9355C701.466 59.5137 701.633 59.1123 701.967 58.7314C702.301 58.3447 702.767 58.0488 703.364 57.8438C703.962 57.6387 704.583 57.5361 705.228 57.5361C706.007 57.5361 706.622 57.7031 707.073 58.0371C707.53 58.3652 707.826 58.7227 707.961 59.1094C708.043 59.3555 708.084 59.9209 708.084 60.8057V63.9961C708.084 64.3711 708.099 64.6084 708.128 64.708C708.157 64.8018 708.201 64.8721 708.26 64.9189C708.318 64.9658 708.386 64.9893 708.462 64.9893C708.614 64.9893 708.77 64.8809 708.928 64.6641L709.191 64.875C708.898 65.3086 708.594 65.625 708.277 65.8242C707.967 66.0176 707.612 66.1143 707.214 66.1143C706.745 66.1143 706.379 66.0059 706.115 65.7891C705.852 65.5664 705.69 65.2324 705.632 64.7871ZM705.632 64.1455V61.3945C704.923 61.8105 704.396 62.2559 704.05 62.7305C703.821 63.0469 703.707 63.3662 703.707 63.6885C703.707 63.958 703.804 64.1953 703.997 64.4004C704.144 64.5586 704.349 64.6377 704.612 64.6377C704.905 64.6377 705.245 64.4736 705.632 64.1455ZM711.758 66V65.6748C712.109 65.6748 712.35 65.584 712.479 65.4023C712.613 65.2207 712.681 64.8604 712.681 64.3213V58.3359H711.863C711.289 58.3359 710.891 58.4385 710.668 58.6436C710.445 58.8486 710.27 59.2764 710.141 59.9268H709.815V57.7822H718.007V59.9268H717.682C717.576 59.3408 717.421 58.9307 717.216 58.6963C717.011 58.4561 716.598 58.3359 715.977 58.3359H715.142V64.3213C715.142 64.8779 715.206 65.2412 715.335 65.4111C715.47 65.5811 715.713 65.6689 716.064 65.6748V66H711.758ZM719.229 69.1553V68.7686C719.908 68.4756 720.4 68.0947 720.705 67.626C721.016 67.1631 721.171 66.6885 721.171 66.2021C721.171 66.1025 721.15 66.0264 721.109 65.9736C721.068 65.9268 721.027 65.9033 720.986 65.9033C720.951 65.9033 720.898 65.9238 720.828 65.9648C720.658 66.0645 720.447 66.1143 720.195 66.1143C719.85 66.1143 719.548 65.9795 719.29 65.71C719.038 65.4404 718.912 65.124 718.912 64.7607C718.912 64.374 719.059 64.0342 719.352 63.7412C719.645 63.4482 719.999 63.3018 720.415 63.3018C720.919 63.3018 721.35 63.498 721.707 63.8906C722.064 64.2773 722.243 64.8105 722.243 65.4902C722.243 66.3281 721.988 67.0723 721.479 67.7227C720.975 68.373 720.225 68.8506 719.229 69.1553ZM734.645 63.8818L734.917 64.0928C734.53 64.8193 734.047 65.3613 733.467 65.7188C732.893 66.0703 732.28 66.2461 731.63 66.2461C730.534 66.2461 729.658 65.833 729.002 65.0068C728.346 64.1807 728.018 63.1875 728.018 62.0273C728.018 60.9082 728.316 59.9238 728.914 59.0742C729.635 58.0488 730.628 57.5361 731.894 57.5361C732.743 57.5361 733.417 57.75 733.915 58.1777C734.419 58.6055 734.671 59.083 734.671 59.6104C734.671 59.9443 734.568 60.2109 734.363 60.4102C734.164 60.6094 733.9 60.709 733.572 60.709C733.227 60.709 732.939 60.5947 732.711 60.3662C732.488 60.1377 732.351 59.7305 732.298 59.1445C732.263 58.7754 732.178 58.5176 732.043 58.3711C731.908 58.2246 731.75 58.1514 731.568 58.1514C731.287 58.1514 731.047 58.3008 730.848 58.5996C730.543 59.0508 730.391 59.7422 730.391 60.6738C730.391 61.4473 730.514 62.1885 730.76 62.8975C731.006 63.6006 731.343 64.125 731.771 64.4707C732.093 64.7227 732.474 64.8486 732.913 64.8486C733.2 64.8486 733.473 64.7812 733.73 64.6465C733.988 64.5117 734.293 64.2568 734.645 63.8818ZM745.077 57.7822V58.1074C744.69 58.1484 744.438 58.2539 744.321 58.4238C744.204 58.5879 744.146 58.9395 744.146 59.4785V64.374C744.146 64.8896 744.21 65.2324 744.339 65.4023C744.468 65.5723 744.714 65.6631 745.077 65.6748V66H740.894V65.6748C741.257 65.6748 741.479 65.5781 741.562 65.3848C741.644 65.1914 741.685 64.875 741.685 64.4355V58.3359H739.329V64.374C739.329 64.9131 739.382 65.2646 739.487 65.4287C739.593 65.5928 739.807 65.6748 740.129 65.6748V66H735.945V65.6748C736.303 65.6689 736.546 65.5781 736.675 65.4023C736.804 65.2266 736.868 64.8516 736.868 64.2773V59.3643C736.868 58.8252 736.795 58.4824 736.648 58.3359C736.508 58.1836 736.273 58.1074 735.945 58.1074V57.7822H745.077ZM753.269 61.5967H748.76C748.812 62.6865 749.103 63.5479 749.63 64.1807C750.034 64.667 750.521 64.9102 751.089 64.9102C751.44 64.9102 751.76 64.8135 752.047 64.6201C752.334 64.4209 752.642 64.0664 752.97 63.5566L753.269 63.75C752.823 64.6582 752.331 65.3027 751.792 65.6836C751.253 66.0586 750.629 66.2461 749.92 66.2461C748.701 66.2461 747.778 65.7773 747.151 64.8398C746.647 64.084 746.396 63.1465 746.396 62.0273C746.396 60.6562 746.765 59.5664 747.503 58.7578C748.247 57.9434 749.117 57.5361 750.113 57.5361C750.945 57.5361 751.666 57.8789 752.275 58.5645C752.891 59.2441 753.222 60.2549 753.269 61.5967ZM751.106 61.0078C751.106 60.0645 751.054 59.417 750.948 59.0654C750.849 58.7139 750.69 58.4473 750.474 58.2656C750.351 58.1602 750.187 58.1074 749.981 58.1074C749.677 58.1074 749.428 58.2568 749.234 58.5557C748.889 59.0771 748.716 59.792 748.716 60.7002V61.0078H751.106ZM763.446 65.6748V68.1621H763.112C763.054 67.4824 762.813 66.9521 762.392 66.5713C761.976 66.1904 761.229 66 760.15 66H754.314V65.6748C754.666 65.6748 754.906 65.584 755.035 65.4023C755.17 65.2148 755.237 64.8428 755.237 64.2861V59.417C755.237 58.8252 755.164 58.4619 755.018 58.3271C754.871 58.1865 754.637 58.1133 754.314 58.1074V57.7822H758.498V58.1074C758.199 58.1191 757.991 58.1924 757.874 58.3271C757.757 58.4561 757.698 58.79 757.698 59.3291V64.1455C757.698 64.7197 757.757 65.083 757.874 65.2354C757.997 65.3818 758.264 65.4551 758.674 65.4551H759.148C759.518 65.4551 759.761 65.3848 759.878 65.2441C759.995 65.1035 760.054 64.752 760.054 64.1895V59.417C760.054 58.8604 759.998 58.5029 759.887 58.3447C759.781 58.1865 759.573 58.1074 759.263 58.1074V57.7822H763.446V58.1074C763.101 58.1191 762.857 58.2129 762.717 58.3887C762.582 58.5586 762.515 58.8721 762.515 59.3291V64.3213C762.515 64.8604 762.573 65.2207 762.69 65.4023C762.813 65.5781 763.065 65.6689 763.446 65.6748ZM769.634 66V65.6748C770.161 65.6748 770.425 65.2822 770.425 64.4971V60.4717L768.069 64.4971C768.075 65.2646 768.342 65.6572 768.869 65.6748V66H764.686V65.6748C765.02 65.6748 765.257 65.5811 765.397 65.3936C765.538 65.2061 765.608 64.8779 765.608 64.4092V59.3379C765.608 58.5176 765.301 58.1074 764.686 58.1074V57.7822H768.869V58.1074C768.564 58.1191 768.354 58.207 768.236 58.3711C768.125 58.5352 768.069 58.8574 768.069 59.3379V63.3457L770.425 59.2676C770.419 58.834 770.354 58.5322 770.231 58.3623C770.108 58.1924 769.909 58.1074 769.634 58.1074V57.7822H773.817V58.1074C773.501 58.1133 773.267 58.1924 773.114 58.3447C772.962 58.4971 772.886 58.79 772.886 59.2236V64.4531C772.886 64.9395 772.953 65.2646 773.088 65.4287C773.229 65.5928 773.472 65.6748 773.817 65.6748V66H769.634ZM779.583 64.7871C778.581 65.6719 777.682 66.1143 776.885 66.1143C776.416 66.1143 776.026 65.9619 775.716 65.6572C775.405 65.3467 775.25 64.96 775.25 64.4971C775.25 63.8701 775.52 63.3076 776.059 62.8096C776.598 62.3057 777.772 61.6377 779.583 60.8057V59.9795C779.583 59.3584 779.548 58.9688 779.478 58.8105C779.413 58.6465 779.287 58.5059 779.1 58.3887C778.912 58.2656 778.701 58.2041 778.467 58.2041C778.086 58.2041 777.772 58.2891 777.526 58.459C777.374 58.5645 777.298 58.6875 777.298 58.8281C777.298 58.9512 777.38 59.1035 777.544 59.2852C777.767 59.5371 777.878 59.7803 777.878 60.0146C777.878 60.3018 777.77 60.5479 777.553 60.7529C777.342 60.9521 777.063 61.0518 776.718 61.0518C776.349 61.0518 776.038 60.9404 775.786 60.7178C775.54 60.4951 775.417 60.2344 775.417 59.9355C775.417 59.5137 775.584 59.1123 775.918 58.7314C776.252 58.3447 776.718 58.0488 777.315 57.8438C777.913 57.6387 778.534 57.5361 779.179 57.5361C779.958 57.5361 780.573 57.7031 781.024 58.0371C781.481 58.3652 781.777 58.7227 781.912 59.1094C781.994 59.3555 782.035 59.9209 782.035 60.8057V63.9961C782.035 64.3711 782.05 64.6084 782.079 64.708C782.108 64.8018 782.152 64.8721 782.211 64.9189C782.27 64.9658 782.337 64.9893 782.413 64.9893C782.565 64.9893 782.721 64.8809 782.879 64.6641L783.143 64.875C782.85 65.3086 782.545 65.625 782.229 65.8242C781.918 66.0176 781.563 66.1143 781.165 66.1143C780.696 66.1143 780.33 66.0059 780.066 65.7891C779.803 65.5664 779.642 65.2324 779.583 64.7871ZM779.583 64.1455V61.3945C778.874 61.8105 778.347 62.2559 778.001 62.7305C777.772 63.0469 777.658 63.3662 777.658 63.6885C777.658 63.958 777.755 64.1953 777.948 64.4004C778.095 64.5586 778.3 64.6377 778.563 64.6377C778.856 64.6377 779.196 64.4736 779.583 64.1455ZM788.53 66V65.6748C788.823 65.6689 789.063 65.5986 789.251 65.4639C789.444 65.3232 789.541 65.0127 789.541 64.5322V58.3359H787.221V61.9307C787.221 63.2256 787.156 64.1191 787.027 64.6113C786.898 65.1035 786.649 65.4814 786.28 65.7451C785.911 66.0088 785.519 66.1406 785.103 66.1406C784.634 66.1406 784.256 66 783.969 65.7188C783.688 65.4316 783.547 65.1035 783.547 64.7344C783.547 64.377 783.649 64.0869 783.854 63.8643C784.065 63.6357 784.335 63.5215 784.663 63.5215C785.29 63.5215 785.604 63.9023 785.604 64.6641C785.604 65.0098 785.671 65.1826 785.806 65.1826C786.063 65.1826 786.263 64.9688 786.403 64.541C786.544 64.1133 786.614 63.2432 786.614 61.9307V59.54C786.614 59.001 786.541 58.6318 786.395 58.4326C786.248 58.2334 785.996 58.125 785.639 58.1074V57.7822H792.881V58.1074C792.295 58.1191 792.002 58.4883 792.002 59.2148V64.4971C792.002 64.9014 792.063 65.1973 792.187 65.3848C792.31 65.5664 792.541 65.6631 792.881 65.6748V66H788.53ZM799.112 66V65.6748C799.64 65.6748 799.903 65.2822 799.903 64.4971V60.4717L797.548 64.4971C797.554 65.2646 797.82 65.6572 798.348 65.6748V66H794.164V65.6748C794.498 65.6748 794.735 65.5811 794.876 65.3936C795.017 65.2061 795.087 64.8779 795.087 64.4092V59.3379C795.087 58.5176 794.779 58.1074 794.164 58.1074V57.7822H798.348V58.1074C798.043 58.1191 797.832 58.207 797.715 58.3711C797.604 58.5352 797.548 58.8574 797.548 59.3379V63.3457L799.903 59.2676C799.897 58.834 799.833 58.5322 799.71 58.3623C799.587 58.1924 799.388 58.1074 799.112 58.1074V57.7822H803.296V58.1074C802.979 58.1133 802.745 58.1924 802.593 58.3447C802.44 58.4971 802.364 58.79 802.364 59.2236V64.4531C802.364 64.9395 802.432 65.2646 802.566 65.4287C802.707 65.5928 802.95 65.6748 803.296 65.6748V66H799.112ZM806.188 66V65.6748C806.539 65.6748 806.779 65.584 806.908 65.4023C807.043 65.2207 807.11 64.8604 807.11 64.3213V58.3359H806.293C805.719 58.3359 805.32 58.4385 805.098 58.6436C804.875 58.8486 804.699 59.2764 804.57 59.9268H804.245V57.7822H812.437V59.9268H812.111C812.006 59.3408 811.851 58.9307 811.646 58.6963C811.44 58.4561 811.027 58.3359 810.406 58.3359H809.571V64.3213C809.571 64.8779 809.636 65.2412 809.765 65.4111C809.899 65.5811 810.143 65.6689 810.494 65.6748V66H806.188ZM820.329 61.5967H815.82C815.873 62.6865 816.163 63.5479 816.69 64.1807C817.095 64.667 817.581 64.9102 818.149 64.9102C818.501 64.9102 818.82 64.8135 819.107 64.6201C819.395 64.4209 819.702 64.0664 820.03 63.5566L820.329 63.75C819.884 64.6582 819.392 65.3027 818.853 65.6836C818.313 66.0586 817.689 66.2461 816.98 66.2461C815.762 66.2461 814.839 65.7773 814.212 64.8398C813.708 64.084 813.456 63.1465 813.456 62.0273C813.456 60.6562 813.825 59.5664 814.563 58.7578C815.308 57.9434 816.178 57.5361 817.174 57.5361C818.006 57.5361 818.727 57.8789 819.336 58.5645C819.951 59.2441 820.282 60.2549 820.329 61.5967ZM818.167 61.0078C818.167 60.0645 818.114 59.417 818.009 59.0654C817.909 58.7139 817.751 58.4473 817.534 58.2656C817.411 58.1602 817.247 58.1074 817.042 58.1074C816.737 58.1074 816.488 58.2568 816.295 58.5557C815.949 59.0771 815.776 59.792 815.776 60.7002V61.0078H818.167ZM823.027 66V65.6748C823.379 65.6748 823.619 65.584 823.748 65.4023C823.883 65.2207 823.95 64.8604 823.95 64.3213V58.3359H823.133C822.559 58.3359 822.16 58.4385 821.938 58.6436C821.715 58.8486 821.539 59.2764 821.41 59.9268H821.085V57.7822H829.276V59.9268H828.951C828.846 59.3408 828.69 58.9307 828.485 58.6963C828.28 58.4561 827.867 58.3359 827.246 58.3359H826.411V64.3213C826.411 64.8779 826.476 65.2412 826.604 65.4111C826.739 65.5811 826.982 65.6689 827.334 65.6748V66H823.027Z" fill="white"/>
<path d="M115.002 190.066C199.198 145.993 271.216 123.956 331.051 123.956C420.806 123.956 283.935 194.198 390.811 194.198C635.591 186.967 652.829 135.319 619.502 123.956C571.44 110.169 577.064 223.156 782.119 203.823C807.507 201.43 1012.62 166.688 976.903 131.187C941.189 95.6871 912.548 208.66 1065.39 158.044C1218.24 107.429 1246.75 107.429 1263.99 149.78" stroke="#ABA0FF" stroke-width="3" stroke-linecap="round" stroke-linejoin="round" stroke-dasharray="3 7"/>
<path d="M256.123 141.516C260.545 141.516 264.13 137.817 264.13 133.253C264.13 128.689 260.545 124.989 256.123 124.989C251.701 124.989 248.116 128.689 248.116 133.253C248.116 137.817 251.701 141.516 256.123 141.516Z" fill="white"/>
<path d="M404.25 202.462C408.672 202.462 412.257 198.762 412.257 194.198C412.257 189.634 408.672 185.934 404.25 185.934C399.828 185.934 396.243 189.634 396.243 194.198C396.243 198.762 399.828 202.462 404.25 202.462Z" fill="white"/>
<path d="M533.361 190.066C537.783 190.066 541.368 186.366 541.368 181.802C541.368 177.238 537.783 173.539 533.361 173.539C528.939 173.539 525.354 177.238 525.354 181.802C525.354 186.366 528.939 190.066 533.361 190.066Z" fill="white"/>
<path d="M675.483 208.659C679.905 208.659 683.49 204.96 683.49 200.396C683.49 195.832 679.905 192.132 675.483 192.132C671.061 192.132 667.476 195.832 667.476 200.396C667.476 204.96 671.061 208.659 675.483 208.659Z" fill="white"/>
<path d="M791.583 210.725C796.005 210.725 799.59 207.025 799.59 202.461C799.59 197.898 796.005 194.198 791.583 194.198C787.161 194.198 783.576 197.898 783.576 202.461C783.576 207.025 787.161 210.725 791.583 210.725Z" fill="white"/>
<path d="M908.684 185.934C913.106 185.934 916.691 182.234 916.691 177.67C916.691 173.107 913.106 169.407 908.684 169.407C904.262 169.407 900.677 173.107 900.677 177.67C900.677 182.234 904.262 185.934 908.684 185.934Z" fill="white"/>
<path d="M1054.81 169.407C1059.23 169.407 1062.82 165.707 1062.82 161.143C1062.82 156.579 1059.23 152.879 1054.81 152.879C1050.39 152.879 1046.8 156.579 1046.8 161.143C1046.8 165.707 1050.39 169.407 1054.81 169.407Z" fill="white"/>
<path d="M1168.91 134.286C1173.33 134.286 1176.91 130.586 1176.91 126.022C1176.91 121.458 1173.33 117.758 1168.91 117.758C1164.49 117.758 1160.9 121.458 1160.9 126.022C1160.9 130.586 1164.49 134.286 1168.91 134.286Z" fill="white"/>
<path d="M1268.99 171.473C1273.42 171.473 1277 167.773 1277 163.209C1277 158.645 1273.42 154.945 1268.99 154.945C1264.57 154.945 1260.99 158.645 1260.99 163.209C1260.99 167.773 1264.57 171.473 1268.99 171.473Z" fill="white"/>
<path d="M121.007 195.231C125.429 195.231 129.014 191.531 129.014 186.967C129.014 182.403 125.429 178.703 121.007 178.703C116.585 178.703 113 182.403 113 186.967C113 191.531 116.585 195.231 121.007 195.231Z" fill="white"/>
</svg>
