<svg width="150" height="150" viewBox="0 0 150 150" fill="none" xmlns="http://www.w3.org/2000/svg">
<g id="point-bg-1 1">
<g id="Group">
<g id="Group_2">
<g id="Group_3">
<g id="Group_4">
<g id="Group_5">
<path id="Vector" d="M75.2375 130.412C105.71 130.412 130.412 105.71 130.412 75.2375C130.412 44.7652 105.71 20.0625 75.2375 20.0625C44.7652 20.0625 20.0625 44.7652 20.0625 75.2375C20.0625 105.71 44.7652 130.412 75.2375 130.412Z" fill="#4829B9"/>
<path id="Vector_2" fill-rule="evenodd" clip-rule="evenodd" d="M55.6709 31.5355C56.973 31.5271 58.1522 32.3063 58.6564 33.5105C59.1584 34.7125 58.8855 36.098 57.9689 37.0209C57.048 37.9459 55.6626 38.223 54.4584 37.725C53.2543 37.2271 52.4689 36.0521 52.4709 34.7501C52.4689 33.898 52.8043 33.0834 53.4043 32.4792C54.0043 31.8751 54.8209 31.5375 55.6709 31.5355ZM95.9793 87.3459C95.8522 86.1896 96.4314 85.0709 97.4501 84.5126C98.4668 83.9501 99.723 84.0605 100.629 84.7876C101.536 85.5167 101.915 86.7167 101.588 87.8313C101.263 88.948 100.296 89.7563 99.1418 89.8813C98.3855 89.9646 97.6293 89.7438 97.0355 89.2688C96.4418 88.7938 96.0626 88.1021 95.9793 87.3459ZM117.219 75.9146C117.154 75.3271 117.448 74.7584 117.967 74.475C118.483 74.1917 119.121 74.2459 119.581 74.6167C120.042 74.9855 120.233 75.5959 120.069 76.1625C119.902 76.7292 119.411 77.1417 118.823 77.2042C118.025 77.2875 117.306 76.7146 117.219 75.9146ZM98.0188 112.519C97.9563 111.935 98.248 111.365 98.7689 111.081C99.2855 110.798 99.923 110.852 100.383 111.223C100.842 111.594 101.036 112.202 100.869 112.771C100.702 113.338 100.213 113.748 99.6251 113.81C99.2397 113.852 98.8543 113.742 98.5543 113.498C98.2522 113.256 98.0605 112.904 98.0188 112.519ZM27.2334 72.4001C27.1689 71.8125 27.4626 71.2459 27.9814 70.9625C28.498 70.6771 29.1355 70.7334 29.5959 71.1021C30.0564 71.473 30.248 72.0813 30.0814 72.6501C29.9147 73.2167 29.4251 73.6271 28.8376 73.6896C28.4543 73.7313 28.0689 73.6188 27.7689 73.3771C27.4668 73.1355 27.2751 72.7855 27.2334 72.4001ZM83.7897 34.8021C83.6626 33.6417 84.5001 32.598 85.6605 32.4709C86.823 32.3459 87.8668 33.1834 87.9939 34.3438C88.1189 35.5042 87.2814 36.548 86.1189 36.675C84.9605 36.8 83.9189 35.9625 83.7897 34.8021ZM58.723 51.2688C59.273 51.2688 59.7709 51.598 59.9814 52.1063C60.1918 52.6146 60.0751 53.2 59.6876 53.5896C59.298 53.9771 58.7126 54.0938 58.2043 53.8813C57.6959 53.673 57.3668 53.175 57.3668 52.625C57.3668 51.875 57.9751 51.2709 58.723 51.2688Z" fill="#EDEDED"/>
<path id="Vector_3" fill-rule="evenodd" clip-rule="evenodd" d="M30.9833 91.1959L46.6479 87.373L60.6958 69.2022C60.6958 69.2022 47.6124 62.5855 40.9187 70.9272C36.1812 76.8855 32.7916 83.8001 30.9833 91.1959ZM62.2479 119.686L64.5187 104.4L83.55 87.7959C83.55 87.7959 88.1541 100.838 80.7833 108.036C75.4812 113.163 69.1687 117.131 62.2479 119.686Z" fill="#5E39DC"/>
<path id="Vector_4" fill-rule="evenodd" clip-rule="evenodd" d="M46.5042 87.575L64.6041 104.567C64.6812 104.481 92.55 80.8063 99.6104 72.6896C111.008 59.5855 106.944 40.4292 106.417 39.6417C105.969 38.9626 85.4896 36.698 72.7625 52.1334C64.8625 61.7105 46.5604 87.5084 46.5042 87.575Z" fill="#9070FF"/>
<path id="Vector_5" fill-rule="evenodd" clip-rule="evenodd" d="M41.1208 95.7084L57.3 111.283C57.3 111.283 60.1416 122.963 40.8333 126.14C25.0937 128.723 26.9895 127.277 26.9895 127.277C26.9895 127.277 25.4375 113.581 28.3895 105.325C31.3416 97.0709 34.4937 95.4751 41.1187 95.7105L41.1208 95.7084Z" fill="#FE5B61"/>
<path id="Vector_6" fill-rule="evenodd" clip-rule="evenodd" d="M44.6042 98.5188L54.3 107.725C54.3 107.725 54.7792 116.121 44.5584 117.786C34.3084 119.452 35.5355 118.492 35.5355 118.492C35.5355 118.492 34.5896 109.563 36.4625 104.165C38.0625 99.5647 41.2271 97.4626 44.6042 98.5188Z" fill="#FF8084"/>
<path id="Vector_7" fill-rule="evenodd" clip-rule="evenodd" d="M47 100.865L51.8729 105.413C51.8729 105.413 52.1354 109.954 46.6021 110.852C41.0583 111.756 41.7208 111.24 41.7208 111.24C41.7208 111.24 41.1875 106.396 42.2229 103.488C43.2604 100.577 45.175 100.294 47 100.865Z" fill="#FEBA4B"/>
<path id="Vector_8" fill-rule="evenodd" clip-rule="evenodd" d="M50.3855 91.2145L61.1751 101.273L57.8022 111.685L39.5959 95.4041L50.3855 91.2145ZM86.6876 50.4895C90.746 50.302 94.5189 52.5729 96.246 56.25C97.9751 59.927 97.3168 64.2812 94.5814 67.2854C91.846 70.2875 87.5709 71.3479 83.7501 69.9687C79.9293 68.5916 77.3126 65.0479 77.1251 60.9895C76.8668 55.45 81.148 50.75 86.6876 50.4895Z" fill="#5E39DC"/>
</g>
</g>
</g>
</g>
</g>
</g>
</svg>
