<svg width="150" height="150" viewBox="0 0 150 150" fill="none" xmlns="http://www.w3.org/2000/svg">
<g id="point-bg-2 1">
<g id="Group">
<g id="Group_2">
<g id="Group_3">
<g id="Group_4">
<g id="Group_5">
<path id="Vector" d="M75.2375 130.412C105.71 130.412 130.412 105.71 130.412 75.2375C130.412 44.7652 105.71 20.0625 75.2375 20.0625C44.7652 20.0625 20.0625 44.7652 20.0625 75.2375C20.0625 105.71 44.7652 130.412 75.2375 130.412Z" fill="#4829B9"/>
</g>
<g id="Group_6">
<path id="Vector_2" fill-rule="evenodd" clip-rule="evenodd" d="M110.185 41.9126H41.627C38.1666 41.9126 35.3603 44.723 35.3603 48.1876V105.508C35.3603 108.975 38.1666 111.783 41.627 111.783H110.185C113.648 111.783 116.454 108.975 116.454 105.508V48.1876C116.454 44.723 113.648 41.9126 110.185 41.9126Z" fill="#2B1285"/>
<g id="Group_7">
<path id="Vector_3" d="M111.298 102.733H14.9833C13.0708 102.733 11.5187 104.354 11.5187 106.354V108.25C11.5187 110.171 13.0083 111.727 14.8458 111.727H109.548C110.515 111.727 111.298 110.906 111.298 109.896V102.733Z" fill="#3718A1"/>
<g id="Mask group">
<mask id="mask0_100_1760" style="mask-type:luminance" maskUnits="userSpaceOnUse" x="11" y="102" width="101" height="10">
<g id="Group_8">
<path id="Vector_4" d="M111.298 102.733H14.9833C13.0708 102.733 11.5187 104.354 11.5187 106.354V108.25C11.5187 110.171 13.0083 111.727 14.8458 111.727H109.548C110.515 111.727 111.298 110.906 111.298 109.896V102.733Z" fill="#2B1385"/>
</g>
</mask>
<g mask="url(#mask0_100_1760)">
<path id="Vector_5" fill-rule="evenodd" clip-rule="evenodd" d="M96.0311 102.738H191.51V107.233C191.51 108.427 191.056 109.571 190.25 110.415C189.442 111.258 188.348 111.731 187.208 111.731H96.0311C93.6561 111.731 91.729 109.717 91.729 107.233C91.7311 104.75 93.6561 102.738 96.0311 102.738Z" fill="#2B1385"/>
</g>
</g>
</g>
<g id="Group_9">
<path id="Vector_6" fill-rule="evenodd" clip-rule="evenodd" d="M104.192 41.9126H36.0377C32.596 41.9126 29.8064 44.7043 29.8064 48.148V102.733H108.865C109.725 102.733 110.423 102.036 110.423 101.175V48.148C110.423 44.7043 107.631 41.9126 104.192 41.9126Z" fill="#4829B9"/>
<path id="Vector_7" fill-rule="evenodd" clip-rule="evenodd" d="M103.954 46.621H36.2751C34.9709 46.621 33.9126 47.6689 33.9126 48.9647V96.7668C33.9126 98.0626 34.9709 99.1126 36.2751 99.1126H103.956C105.261 99.1126 106.319 98.0626 106.319 96.7668V48.9647C106.319 47.6689 105.261 46.6189 103.956 46.6189L103.954 46.621Z" fill="#6546D9"/>
</g>
</g>
<g id="Group_10">
<path id="Vector_8" fill-rule="evenodd" clip-rule="evenodd" d="M45.0249 72.1125H86.9C89.1666 72.1125 90.975 74.1834 90.9416 76.7376L90.8312 85.5876C90.7979 88.1438 88.9354 90.2126 86.6708 90.2126H44.7958C42.5312 90.2126 40.7208 88.1438 40.7541 85.5876L40.8666 76.7396C40.8979 74.1834 42.7604 72.1146 45.0249 72.1146V72.1125Z" fill="#FEBA4B"/>
<path id="Vector_9" fill-rule="evenodd" clip-rule="evenodd" d="M47.2229 82.8085H66.3729C66.9916 82.8085 67.4937 83.2689 67.4937 83.8377C67.4937 84.4064 66.9937 84.8668 66.3729 84.8668H47.2229C46.6041 84.8668 46.1041 84.4064 46.1041 83.8377C46.1041 83.2689 46.6041 82.8085 47.2229 82.8085ZM47.2271 77.0481H84.4708C85.0916 77.0481 85.5958 77.5106 85.5958 78.0773C85.5958 78.646 85.0916 79.1064 84.4708 79.1064H47.2271C46.6041 79.1064 46.1021 78.6481 46.1021 78.0773C46.1021 77.5106 46.6041 77.0481 47.2271 77.0481Z" fill="#FFCB75"/>
<path id="Vector_10" fill-rule="evenodd" clip-rule="evenodd" d="M87.2395 18.6313C89.5125 18.6313 91.3541 20.473 91.3541 22.7459V32.6188C91.3541 34.8897 89.5125 36.7334 87.2395 36.7334H45.2812C43.0062 36.7334 41.1646 34.8918 41.1646 32.6188V22.7438C41.1646 21.6543 41.5979 20.6084 42.3687 19.8355C43.1396 19.0647 44.1875 18.6313 45.2791 18.6313H87.2395Z" fill="#18C9B1"/>
<path id="Vector_11" opacity="0.29" fill-rule="evenodd" clip-rule="evenodd" d="M47.5063 29.1939H84.748C85.3709 29.1939 85.873 29.6564 85.873 30.223C85.873 30.7918 85.3709 31.2522 84.748 31.2522H47.5063C46.8834 31.2522 46.3813 30.7918 46.3813 30.223C46.3813 29.6564 46.8834 29.1939 47.5063 29.1939ZM47.5063 23.4355H84.748C85.3709 23.4355 85.873 23.896 85.873 24.4647C85.873 25.0314 85.3709 25.4918 84.748 25.4918H47.5063C46.8834 25.4918 46.3813 25.0335 46.3813 24.4647C46.3813 23.896 46.8834 23.4355 47.5063 23.4355Z" fill="white"/>
<g id="Group_11">
<path id="Vector_12" fill-rule="evenodd" clip-rule="evenodd" d="M39.5187 41.5376H94.2354C97.6437 41.5376 100.406 44.3001 100.406 47.7084V61.2876C100.406 64.6938 97.6437 67.4584 94.2354 67.4584H39.5187C36.1104 67.4543 33.3479 64.6918 33.3479 61.2855V47.7084C33.3479 44.3001 36.1104 41.5376 39.5187 41.5376Z" fill="#FE5B61"/>
<path id="Vector_13" fill-rule="evenodd" clip-rule="evenodd" d="M41.9791 49.7667H70.7915C71.6978 49.7667 72.4311 50.4584 72.4311 51.3146V51.5084C72.4311 52.3626 71.6978 53.0563 70.7936 53.0563H41.9791C41.0749 53.0563 40.3416 52.3626 40.3416 51.5084V51.3146C40.3416 50.4605 41.0749 49.7646 41.9791 49.7646V49.7667ZM78.1645 49.7667H90.5582C91.4541 49.7667 92.177 50.4584 92.177 51.3146V51.5084C92.177 52.3626 91.452 53.0563 90.5582 53.0563H78.1624C77.2686 53.0563 76.5436 52.3626 76.5436 51.5084V51.3146C76.5436 50.4605 77.2686 49.7646 78.1645 49.7646V49.7667ZM41.9874 57.1709H90.9416C91.852 57.1709 92.5874 57.8646 92.5874 58.7188V58.9126C92.5874 59.7667 91.852 60.4626 90.9416 60.4626H41.9874C41.0791 60.4626 40.3416 59.7688 40.3416 58.9126V58.7188C40.3416 57.8646 41.0791 57.1709 41.9874 57.1709Z" fill="#FF858A"/>
</g>
</g>
</g>
</g>
</g>
</g>
</g>
</svg>
