<svg width="150" height="150" viewBox="0 0 150 150" fill="none" xmlns="http://www.w3.org/2000/svg">
<g id="point-bg-3 1">
<g id="Group">
<g id="Group_2">
<g id="Group_3">
<g id="Group_4">
<g id="Group_5">
<g id="Group_6">
<path id="Vector" fill-rule="evenodd" clip-rule="evenodd" d="M28.2313 49.2189C44.1834 23.2647 78.1605 15.1543 104.119 31.1043C130.077 47.0564 138.192 81.0293 122.242 106.988C106.292 132.946 72.3168 141.061 46.3563 125.113C33.8855 117.452 24.9709 105.152 21.5709 90.921C18.173 76.6876 20.5688 61.6876 28.2313 49.2189Z" fill="#4829B9"/>
<path id="Vector_2" fill-rule="evenodd" clip-rule="evenodd" d="M67.7417 64.4898C69.1334 64.4856 70.2626 65.6085 70.2688 66.9981L70.4751 116.538C70.4792 117.204 70.2167 117.848 69.7459 118.321C69.2751 118.796 68.6355 119.063 67.9667 119.065L33.4438 119.198C32.0522 119.202 30.923 118.081 30.9167 116.69L30.7063 67.1523C30.7001 65.7606 31.823 64.6314 33.2147 64.6252" fill="#E9E8F4"/>
<path id="Vector_3" d="M41.148 107.486H60.4792C61.1376 107.486 61.673 106.95 61.673 106.29C61.673 105.631 61.1376 105.096 60.4792 105.096H41.1459C40.4876 105.096 39.9521 105.631 39.9521 106.29C39.9521 106.95 40.4876 107.486 41.1459 107.486H41.148ZM45.973 112.673H55.6521C56.3105 112.673 56.8459 112.138 56.8459 111.479C56.8459 110.819 56.3105 110.283 55.6521 110.283H45.973C45.3146 110.283 44.7792 110.819 44.7792 111.479C44.7792 112.138 45.3146 112.673 45.973 112.673Z" fill="#C5C4D8"/>
<path id="Vector_4" fill-rule="evenodd" clip-rule="evenodd" d="M54.8397 79.8646V76.8771L46.4855 76.8875C46.4542 78.5021 46.4188 79.3271 46.3813 79.3666C46.323 79.4208 45.5251 78.1958 45.5897 76.9291C45.6313 76.1812 46.0167 75.4937 46.6313 75.0667L54.4292 75.0729L55.6042 75.4312C55.823 76.9521 55.5563 78.5062 54.8397 79.8646Z" fill="#21155C"/>
<path id="Vector_5" fill-rule="evenodd" clip-rule="evenodd" d="M47.9939 86.5937C47.9939 86.5937 46.5793 87.2354 45.4293 87.6604C44.2772 88.0854 40.8001 89.5562 40.8001 89.5562C40.8001 89.5562 39.3481 90.2208 38.9668 91.5562C38.5731 92.8896 37.9147 96.55 37.7897 97.5437C37.6647 98.5375 37.1793 100.887 38.6939 100.917C40.2085 100.944 62.096 100.896 62.096 100.896C62.096 100.896 63.596 100.696 63.5543 99.3437C63.5105 97.9916 62.8251 93.052 62.3772 91.8541C61.9293 90.6541 61.5189 89.8708 59.6064 89.0937C57.696 88.3145 56.0855 87.6604 55.3793 87.2771C54.6751 86.9333 53.9501 86.6271 53.2126 86.3646C52.6001 86.1125 47.9939 86.5937 47.9939 86.5937Z" fill="#FE5B61"/>
<path id="Vector_6" fill-rule="evenodd" clip-rule="evenodd" d="M47.6937 84.0438V87.3626C47.6937 87.6459 49.0583 88.7438 50.4646 88.7792C51.95 88.8105 53.4833 87.5584 53.4833 87.3626V83.2646L47.6937 84.0438Z" fill="#F3DBC3"/>
<path id="Vector_7" fill-rule="evenodd" clip-rule="evenodd" d="M44.6501 95.0939C44.6501 94.8939 44.8126 94.7314 45.0106 94.7314C45.2106 94.7314 45.371 94.8939 45.371 95.0939" fill="#F2BC60"/>
<path id="Vector_8" fill-rule="evenodd" clip-rule="evenodd" d="M55.9709 94.4104C56.1855 92.4542 56.6688 87.8708 56.6688 87.8708L57.9813 88.4396C57.9813 88.4396 57.5376 93.4063 57.3688 95L58.1209 100.931L43.1626 100.921L43.6897 95.475L42.7876 88.7458L44.0043 88.2083L45.0188 94.4146L55.9709 94.4104Z" fill="#FEBA4B"/>
<path id="Vector_9" fill-rule="evenodd" clip-rule="evenodd" d="M48.4856 85.4814C49.0064 86.0397 49.7272 86.3626 50.4897 86.3772C51.2501 86.3939 51.9856 86.1022 52.5272 85.5668C54.0793 84.1293 54.3335 81.5793 54.3335 81.5793C54.9939 81.4522 55.4981 80.9126 55.5793 80.246C55.7418 79.0793 55.6001 78.4543 55.1543 79.0793C54.7106 79.7043 54.9397 75.9126 54.9397 75.9126L50.2772 75.7751L46.2356 75.7939C46.4147 78.1126 46.4647 79.3043 46.3814 79.3647C46.2564 79.4564 46.0585 78.4647 45.6522 78.7897C45.2481 79.1126 45.4293 80.2897 45.8189 80.9043C45.9835 81.2376 46.2835 81.4793 46.6418 81.571C46.6418 81.571 47.2251 84.1626 48.4856 85.4814Z" fill="#F3DBC3"/>
<path id="Vector_10" fill-rule="evenodd" clip-rule="evenodd" d="M44.8126 76.1563L56.3439 76.1479C56.4626 76.1479 56.5772 76.1938 56.6626 76.2792C56.746 76.3625 56.7939 76.4771 56.7939 76.5959V76.8771C56.7939 77.125 56.596 77.325 56.3501 77.3271L44.8126 77.3354C44.5668 77.3354 44.3689 77.1375 44.3689 76.8917V76.6063C44.3689 76.3605 44.5668 76.1604 44.8126 76.1563Z" fill="#F2BC60"/>
<path id="Vector_11" fill-rule="evenodd" clip-rule="evenodd" d="M45.2918 76.6875C45.2855 74.0459 47.4251 71.6813 50.0668 71.6813L51.2188 71.675C53.8605 71.675 56.0043 74.0355 56.0105 76.6771" fill="#FEBA4B"/>
<path id="Vector_12" fill-rule="evenodd" clip-rule="evenodd" d="M49.6043 71.25L51.5668 71.2458C51.8647 71.2458 52.1064 71.4875 52.1084 71.7854L51.6543 75.5458C51.6897 75.7958 51.5251 76.0354 51.2751 76.0896H49.9001C49.6522 76.0354 49.4876 75.8 49.523 75.5479L49.0647 71.7896C49.0647 71.6458 49.1189 71.5083 49.2209 71.4083C49.323 71.3063 49.4605 71.25 49.6043 71.25Z" fill="#F6CD85"/>
<g id="Group_7">
<path id="Vector_13" fill-rule="evenodd" clip-rule="evenodd" d="M64.1876 17.2188L117.108 17.198C119.24 17.1959 120.971 18.9209 120.977 21.0522L121.136 96.7751C121.14 98.9063 119.417 100.638 117.286 100.644L64.3585 100.74C63.3335 100.74 62.3522 100.335 61.6272 99.6126C60.9022 98.8897 60.4939 97.9084 60.4939 96.8834L60.3376 21.0813C60.3376 20.0605 60.7397 19.0772 61.4626 18.3522C62.1835 17.6272 63.1647 17.2188 64.1876 17.2167V17.2188Z" fill="#4E3DD1"/>
<path id="Vector_14" fill-rule="evenodd" clip-rule="evenodd" d="M94.5605 48.0251C95.2355 48.6981 96.3292 49.3272 96.9292 50.0689C96.9292 50.0689 102.175 51.8564 103.417 52.3564C104.658 52.8585 108.792 55.1939 109.538 58.0335C110.281 60.871 110.65 68.4856 110.65 68.4856C110.65 68.4856 111.004 71.0981 109.198 71.1064C95.8417 71.1981 72.7438 71.1022 72.7438 71.1022C72.7438 71.1022 70.3021 71.0793 70.2688 68.7147C70.3105 67.0272 70.4542 65.346 70.7042 63.6793C71.0438 61.0668 71.5584 58.3522 72.1521 57.1876C73.2355 55.046 74.3292 53.996 76.55 52.9543C78.773 51.9126 83.3334 50.3272 83.75 50.0251C84.1667 49.7251 85.9167 48.1293 85.9167 48.1293L94.5605 48.0251Z" fill="#F2EFFF"/>
<path id="Vector_15" fill-rule="evenodd" clip-rule="evenodd" d="M85.8042 46.071L85.8 49.0335L87.925 54.2544L92.0042 52.696L94.8667 48.9419L94.8709 45.8564L85.8042 46.071Z" fill="#F3DBC3"/>
<g id="Group_8">
<path id="Vector_16" d="M85.7981 48.2063L83.8293 49.9438C83.8293 49.9438 87.3856 60.0688 89.0335 66.2563C89.4627 67.8668 90.7585 69.3188 91.9231 65.9897C94.0481 59.9022 96.9752 50.0563 96.9752 50.0563L94.871 47.9438C94.871 47.9438 93.6918 52.2188 90.3168 52.1063C86.9418 51.9938 85.7981 48.2063 85.7981 48.2063Z" fill="#8B73FA"/>
<g id="Mask group">
<mask id="mask0_100_1838" style="mask-type:luminance" maskUnits="userSpaceOnUse" x="83" y="47" width="14" height="22">
<g id="Group_9">
<path id="Vector_17" d="M85.7981 48.2063L83.8293 49.9438C83.8293 49.9438 87.3856 60.0688 89.0335 66.2563C89.4627 67.8668 90.7585 69.3188 91.9231 65.9897C94.0481 59.9022 96.9752 50.0563 96.9752 50.0563L94.871 47.9438C94.871 47.9438 93.6918 52.2188 90.3168 52.1063C86.9418 51.9938 85.7981 48.2063 85.7981 48.2063Z" fill="#442EB2"/>
</g>
</mask>
<g mask="url(#mask0_100_1838)">
<path id="Vector_18" fill-rule="evenodd" clip-rule="evenodd" d="M89.5502 51.9917L88.9835 53.6292L89.4002 54.9938L88.4419 64.7229C87.7065 65.5979 88.8002 68.4438 90.4731 68.275C91.2085 68.2021 92.5898 65.6417 92.4065 64.9042L91.0794 54.9938L91.4856 53.6292L90.9856 52.0813L89.5481 51.9917H89.5502Z" fill="#442EB2"/>
</g>
</g>
</g>
<path id="Vector_19" fill-rule="evenodd" clip-rule="evenodd" d="M82.9334 36.3729C83.0709 35.6938 81.0167 33.7938 81.4855 37.3896C81.8917 40.5521 82.7667 40.4104 83.1146 41.5042C83.8626 43.8438 85.2292 45.9354 87.0709 47.5604C88.8834 49.1334 92.2917 49.7146 94.2834 46.9063C95.5334 45.2313 96.5063 43.3646 97.1688 41.3854C97.3355 40.8979 98.1521 40.9354 98.7792 40.075C99.4042 39.2146 99.7876 37.175 99.548 35.9584C99.4001 35.1875 98.4542 35.0063 97.8605 35.7C97.1542 34.0854 97.2605 31.0958 97.2605 31.0958L91.4938 29.9958L83.8792 31.2625L82.9334 36.3729Z" fill="#F3DBC3"/>
<path id="Vector_20" d="M71.7398 81.9314H109.296C110.35 81.9314 111.206 81.0773 111.206 80.021C111.206 78.9668 110.352 78.1106 109.296 78.1106H71.7398C70.6856 78.1106 69.8293 78.9648 69.8293 80.021C69.8293 81.0773 70.6835 81.9314 71.7398 81.9314ZM77.7606 89.7148H103.279C104.334 89.7148 105.19 88.8585 105.19 87.8023C105.19 86.7481 104.336 85.8918 103.279 85.8918H77.7585C76.7043 85.8918 75.8481 86.746 75.8481 87.8023C75.8481 88.8585 76.7043 89.7148 77.7606 89.7148Z" fill="#8B73FF"/>
<path id="Vector_21" fill-rule="evenodd" clip-rule="evenodd" d="M82.3626 36.3981C82.071 34.946 81.6689 32.5543 82.0293 30.721C83.9043 21.2439 97.7585 23.3564 98.3439 30.3106C98.9314 37.2668 96.6355 38.871 96.7605 35.0689C96.8293 32.9397 97.1105 31.5189 94.4689 32.2647C92.6126 32.7293 90.671 32.7502 88.8043 32.3272C87.1168 31.8981 83.8001 31.9314 83.6397 34.7356C83.4418 38.2314 82.4626 36.8877 82.3626 36.3981Z" fill="#2B1B6B"/>
</g>
</g>
</g>
</g>
</g>
</g>
</g>
</g>
</svg>
