<svg width="150" height="150" viewBox="0 0 150 150" fill="none" xmlns="http://www.w3.org/2000/svg">
<g id="point-bg-4 1">
<g id="Group">
<g id="Group_2">
<g id="Group_3">
<g id="Group_4">
<g id="Group_5">
<g id="Group_6">
<path id="Vector" fill-rule="evenodd" clip-rule="evenodd" d="M28.2332 46.3499C44.1874 20.3957 78.1624 12.2853 104.121 28.2374C130.079 44.1895 138.192 78.1624 122.239 104.121C106.287 130.079 72.3124 138.192 46.352 122.242C33.8832 114.581 24.9686 102.283 21.5707 88.0499C18.1728 73.8166 20.5707 58.8166 28.2332 46.3499Z" fill="#4829B9"/>
<path id="Vector_2" fill-rule="evenodd" clip-rule="evenodd" d="M83.8832 28.6228H117.004C118.427 28.6853 119.658 29.6353 120.075 30.9978L121.596 36.4707C122.033 38.0582 121.164 39.3895 119.637 39.3895H81.652C80.1228 39.3895 79.2061 38.0561 79.5832 36.4728L80.902 30.9978C81.2645 29.6353 82.4749 28.6728 83.8811 28.6228H83.8832Z" fill="#4829B9"/>
<path id="Vector_3" fill-rule="evenodd" clip-rule="evenodd" d="M81.5479 63.5727V39.3435H86.4645C86.4645 39.3435 87.7437 39.4894 89.3291 37.7894C90.9166 36.0894 99.1416 26.8415 99.1416 26.8415C99.5083 26.331 100.071 25.9998 100.694 25.929C101.598 25.929 102.221 26.929 102.221 26.929L112.025 37.9519C112.702 38.8727 113.783 39.4102 114.925 39.3956H119.794V63.3435L81.5479 63.5727Z" fill="#FEBA4B"/>
<path id="Vector_4" fill-rule="evenodd" clip-rule="evenodd" d="M101.052 52.8333C102.635 52.8333 103.917 54.1145 103.919 55.6937V63.127C103.919 64.7103 102.635 65.9937 101.052 65.9937C99.4708 65.9916 98.1917 64.7083 98.1917 63.127V55.6937C98.1917 54.9353 98.4917 54.2083 99.0292 53.6728C99.5667 53.1333 100.294 52.8333 101.052 52.8333Z" fill="#2E186F"/>
<path id="Vector_5" fill-rule="evenodd" clip-rule="evenodd" d="M80.7353 62.9312H121.064C121.939 62.9312 122.65 63.6416 122.65 64.5187C122.65 65.3937 121.942 66.102 121.064 66.102H80.7353C79.8603 66.102 79.1499 65.3937 79.1499 64.5187C79.1499 63.6437 79.8582 62.9312 80.7353 62.9312Z" fill="#4C40C9"/>
<path id="Vector_6" d="M100.639 39.0229C103.068 39.0229 105.037 37.0539 105.037 34.625C105.037 32.1961 103.068 30.2271 100.639 30.2271C98.2105 30.2271 96.2415 32.1961 96.2415 34.625C96.2415 37.0539 98.2105 39.0229 100.639 39.0229Z" fill="#F3D6A4"/>
<path id="Vector_7" fill-rule="evenodd" clip-rule="evenodd" d="M115.781 60.5624C114.802 60.5624 114.01 59.7666 114.012 58.7916V55.202C114.012 54.2249 114.804 53.4312 115.783 53.4312C116.762 53.4312 117.554 54.2249 117.554 55.202V58.7895C117.554 59.2603 117.366 59.7103 117.033 60.0437C116.7 60.377 116.25 60.5645 115.781 60.5624ZM115.781 49.2499C114.804 49.2499 114.012 48.4582 114.012 47.4832V43.8895C114.012 42.9124 114.804 42.1187 115.783 42.1187C116.762 42.1187 117.554 42.9124 117.554 43.8895V47.4832C117.552 48.4603 116.758 49.252 115.781 49.2499ZM109.05 60.5624C108.579 60.5624 108.129 60.3749 107.796 60.0416C107.462 59.7103 107.277 59.2603 107.277 58.7916V55.202C107.277 54.2249 108.069 53.4312 109.048 53.4312C110.025 53.4312 110.819 54.2249 110.819 55.202V58.7895C110.819 59.2603 110.631 59.7103 110.302 60.0437C109.969 60.377 109.519 60.5624 109.05 60.5624ZM109.05 49.2499C108.071 49.2499 107.279 48.4582 107.279 47.4832V43.8895C107.279 42.9124 108.071 42.1187 109.048 42.1187C110.025 42.1187 110.819 42.9124 110.819 43.8895V47.4832C110.819 48.4582 110.029 49.2499 109.05 49.2499ZM102.012 48.9499H99.6456C99.2165 48.9499 98.806 48.777 98.5019 48.4749C98.1998 48.1707 98.031 47.7582 98.031 47.3291V45.052C98.031 44.6228 98.1998 44.2124 98.504 43.9082C98.806 43.6062 99.2165 43.4353 99.6456 43.4374H102.014C102.444 43.4374 102.854 43.6062 103.158 43.9082C103.46 44.2124 103.631 44.6228 103.629 45.052V47.3291C103.629 47.7582 103.462 48.1707 103.158 48.4749C102.856 48.777 102.444 48.9478 102.014 48.9499H102.012ZM92.8873 60.5624C91.9123 60.5624 91.1206 59.7666 91.1206 58.7916V55.202C91.1206 54.2249 91.9123 53.4312 92.8915 53.4312C93.8685 53.4312 94.6623 54.2249 94.6623 55.202V58.7895C94.6623 59.2603 94.4748 59.7103 94.1415 60.0437C93.8081 60.377 93.356 60.5645 92.8873 60.5624ZM92.8873 49.2499C91.9123 49.2499 91.1206 48.4582 91.1206 47.4832V43.8895C91.1206 42.9124 91.9123 42.1187 92.8915 42.1187C93.8685 42.1187 94.6623 42.9124 94.6623 43.8895V47.4832C94.6602 48.4603 93.8644 49.252 92.8873 49.2499ZM85.8894 60.5624C85.4206 60.5624 84.9685 60.3749 84.6373 60.0416C84.304 59.7103 84.1165 59.2603 84.1165 58.7916V55.202C84.1165 54.2249 84.9102 53.4312 85.8873 53.4312C86.8665 53.4312 87.6581 54.2249 87.6581 55.202V58.7895C87.6581 59.7687 86.8665 60.5603 85.8894 60.5624ZM85.8894 49.2499C84.9123 49.2499 84.1185 48.4582 84.1185 47.4832V43.8895C84.1185 42.9124 84.9102 42.1187 85.8894 42.1187C86.8665 42.1187 87.6581 42.9124 87.6581 43.8895V47.4832C87.6581 48.4582 86.8665 49.2499 85.8894 49.2499Z" fill="#FAD59D"/>
<path id="Vector_8" d="M101.277 32.4354C101.277 32.0396 100.956 31.7188 100.56 31.7188C100.165 31.7188 99.8438 32.0396 99.8438 32.4354V35.2C99.8438 35.5958 100.165 35.9167 100.56 35.9167H102.515C102.91 35.9167 103.231 35.5958 103.231 35.2C103.231 34.8042 102.91 34.4854 102.515 34.4854H101.277V32.4354Z" fill="#F2BC60"/>
<path id="Vector_9" fill-rule="evenodd" clip-rule="evenodd" d="M32.5125 52.375H90.1791C92.6583 52.4833 94.802 54.1396 95.5312 56.5125L98.177 66.2479C98.9479 69.0083 97.4312 71.3312 94.7666 71.3312H28.6333C25.9666 71.3312 24.3666 69.0083 25.0291 66.2479L27.3208 56.5125C27.9541 54.1417 30.0604 52.4646 32.5125 52.375Z" fill="#9070FF"/>
<path id="Vector_10" fill-rule="evenodd" clip-rule="evenodd" d="M28.4541 113.521V71.3292H37.0145C37.0145 71.3292 39.2333 71.3063 41.9895 68.3396C44.7458 65.3729 59.0812 49.275 59.0812 49.275C59.0812 49.275 60.2083 47.6875 61.7854 47.6875C63.3624 47.6875 64.4333 49.275 64.4333 49.275L81.5166 68.6208C82.6937 70.225 84.5749 71.3563 86.5645 71.3292H95.0395V112.833L28.4541 113.521Z" fill="#4829B9"/>
<path id="Vector_11" fill-rule="evenodd" clip-rule="evenodd" d="M61.8664 94.5374H62.2914C64.9289 94.5374 67.0685 96.6749 67.0685 99.3144V112.675C67.0685 115.314 64.9289 117.452 62.2914 117.452H61.8664C59.2289 117.452 57.0894 115.314 57.0894 112.675V99.3144C57.0894 98.0457 57.5894 96.8311 58.4873 95.9353C59.3831 95.0394 60.5998 94.5353 61.8664 94.5374Z" fill="#2D186E"/>
<path id="Vector_12" fill-rule="evenodd" clip-rule="evenodd" d="M26.3165 112.112H97.7706C98.3373 112.112 98.8831 112.335 99.2831 112.737C99.6852 113.135 99.9102 113.679 99.9102 114.248V115.504C99.9102 116.071 99.6852 116.616 99.2852 117.016C98.8831 117.419 98.3394 117.644 97.7706 117.644H26.3165C25.1331 117.644 24.1769 116.685 24.1748 115.504V114.248C24.1769 113.066 25.1331 112.11 26.3165 112.112Z" fill="#4E3DD1"/>
<path id="Vector_13" d="M61.6811 70.477C65.9026 70.477 69.3249 67.0547 69.3249 62.8332C69.3249 58.6117 65.9026 55.1895 61.6811 55.1895C57.4596 55.1895 54.0374 58.6117 54.0374 62.8332C54.0374 67.0547 57.4596 70.477 61.6811 70.477Z" fill="#8B73FF"/>
<path id="Vector_14" fill-rule="evenodd" clip-rule="evenodd" d="M88.054 107.989C87.2373 107.989 86.454 107.664 85.8748 107.087C85.2977 106.51 84.9727 105.725 84.9727 104.908V98.6582C84.9727 96.9582 86.3519 95.579 88.0561 95.579C89.7561 95.579 91.1352 96.9582 91.1352 98.6603V104.908C91.1352 105.725 90.8123 106.51 90.2332 107.087C89.6561 107.664 88.8727 107.989 88.054 107.989ZM88.054 88.2978C86.354 88.2978 84.9748 86.9186 84.9727 85.2165V78.9644C84.9727 77.2624 86.3519 75.8811 88.0561 75.8811C89.7561 75.8811 91.1352 77.2624 91.1352 78.9644V85.2165C91.1352 86.9186 89.7561 88.2978 88.054 88.2999V88.2978ZM76.3311 107.989C75.5144 107.989 74.7311 107.664 74.1519 107.087C73.5748 106.51 73.2498 105.725 73.2498 104.908V98.6582C73.2498 96.9582 74.629 95.579 76.3332 95.579C78.0332 95.579 79.4123 96.9582 79.4123 98.6603V104.908C79.4123 105.725 79.0894 106.51 78.5102 107.087C77.9332 107.664 77.1477 107.989 76.3311 107.989ZM76.3311 88.2978C74.6311 88.2978 73.2519 86.9186 73.2498 85.2165V78.9644C73.2498 77.2624 74.629 75.8811 76.3332 75.8811C78.0332 75.8811 79.4123 77.2624 79.4123 78.9644V85.2165C79.4123 86.9186 78.0332 88.2978 76.3311 88.2999V88.2978ZM64.079 87.7686H59.954C58.4019 87.7686 57.1415 86.5082 57.1415 84.954V80.9853C57.1415 79.4311 58.4019 78.1728 59.954 78.1707H64.079C64.8248 78.1707 65.5415 78.4665 66.0686 78.9936C66.5957 79.5228 66.8915 80.2374 66.8915 80.9853V84.954C66.8915 85.6999 66.5957 86.4165 66.0686 86.9436C65.5415 87.4728 64.8248 87.7686 64.079 87.7686ZM48.1936 107.989C47.3769 107.989 46.5936 107.664 46.0144 107.087C45.4373 106.51 45.1123 105.725 45.1123 104.908V98.6582C45.1123 96.9582 46.4936 95.579 48.1957 95.579C49.8957 95.579 51.2748 96.9582 51.2748 98.6603V104.908C51.2748 105.725 50.9519 106.51 50.3748 107.087C49.7957 107.664 49.0123 107.989 48.1936 107.989ZM48.1936 88.2978C46.4936 88.2978 45.1144 86.9186 45.1123 85.2165V78.9644C45.1123 77.2624 46.4936 75.8811 48.1957 75.8811C49.8957 75.8811 51.2748 77.2624 51.2748 78.9644V85.2165C51.2748 86.9186 49.8957 88.2978 48.1936 88.2999V88.2978ZM36.004 107.989C35.1852 107.989 34.4019 107.664 33.8248 107.087C33.2457 106.51 32.9207 105.725 32.9227 104.908V98.6582C32.9227 97.5582 33.5102 96.5415 34.4644 95.9915C35.4165 95.4415 36.5894 95.4415 37.5436 95.9915C38.4977 96.5415 39.0852 97.5582 39.0852 98.6582V104.908C39.0852 105.725 38.7602 106.51 38.1832 107.087C37.604 107.664 36.8207 107.989 36.004 107.989ZM36.004 88.2978C34.3019 88.2978 32.9227 86.9186 32.9207 85.2165V78.9644C32.9207 77.8624 33.5102 76.8457 34.4623 76.2957C35.4165 75.7457 36.5915 75.7457 37.5457 76.2957C38.4977 76.8457 39.0852 77.8624 39.0852 78.9624V85.2165C39.0852 86.9186 37.704 88.2978 36.0019 88.2999L36.004 88.2978Z" fill="#9070FF"/>
<path id="Vector_15" d="M62.4833 59.0208C62.4833 58.3604 61.9479 57.825 61.2896 57.825C60.6292 57.825 60.0938 58.3604 60.0938 59.0187V64.0937C60.0938 64.752 60.6292 65.2875 61.2896 65.2875H64.6896C65.35 65.2875 65.8833 64.752 65.8833 64.0937C65.8833 63.4333 65.35 62.8979 64.6896 62.8979H62.4812L62.4833 59.0208Z" fill="#442EB2"/>
</g>
</g>
</g>
</g>
</g>
</g>
</g>
</svg>
